# xmcd
# 
# Track frame offsets:
#     150
#     17539
#     35016
#     46536
#     66588
# 
# Disc length: 1076
# 
# Revision: 0
# Processed by: cddbd v1.5.2PL0 Copyright (c) Steve Scherf et al.
# Submitted via: BonkEnc v1.0.8
# 
DISCID=39043205
DTITLE=fairy tale - landscape
DYEAR=2010
DGENRE=Pop
TTITLE0=Fairy tale
TTITLE1=flora
TTITLE2=Newfound resolve
TTITLE3=太陽の微笑み
TTITLE4=雪の時間
EXTD=
EXTT0=
EXTT1=
EXTT2=
EXTT3=
EXTT4=
PLAYORDER=
